<?xml version="1.0" standalone="no"?>
<!DOCTYPE svg PUBLIC "-//W3C//DTD SVG 20010904//EN"
 "http://www.w3.org/TR/2001/REC-SVG-20010904/DTD/svg10.dtd">
<svg version="1.0" xmlns="http://www.w3.org/2000/svg"
 width="640.000000pt" height="640.000000pt" viewBox="0 0 640.000000 640.000000"
 preserveAspectRatio="xMidYMid meet">
<metadata>
Created by potrace 1.11, written by Peter Selinger 2001-2013
</metadata>
<g transform="translate(0.000000,640.000000) scale(0.100000,-0.100000)"
fill="#000000" stroke="none">
<path d="M2763 6357 c-106 -16 -133 -23 -133 -36 0 -9 22 -311 50 -670 27
-360 48 -656 47 -658 -2 -1 -133 271 -291 605 -159 334 -290 608 -291 610 -6
7 -315 -123 -315 -132 0 -6 77 -226 171 -490 249 -700 269 -756 265 -756 -2 0
-196 225 -431 500 -235 275 -431 500 -436 500 -18 0 -264 -192 -263 -204 1
-10 688 -1012 758 -1106 15 -20 32 -32 -568 384 -292 202 -535 365 -542 364
-6 -2 -56 -59 -109 -127 -68 -86 -95 -128 -89 -137 5 -7 231 -202 502 -434
271 -232 491 -424 489 -426 -2 -3 -282 95 -623 216 -340 120 -622 216 -626
212 -13 -13 -138 -304 -133 -312 2 -4 273 -135 601 -291 365 -173 589 -285
576 -287 -12 -2 -308 20 -658 48 -350 28 -638 50 -640 47 -5 -5 -56 -328 -52
-332 1 -2 299 -59 660 -127 361 -67 654 -126 650 -129 -4 -3 -299 -58 -656
-123 -358 -64 -652 -118 -654 -120 -6 -7 47 -319 55 -326 5 -4 285 15 623 41
338 27 633 48 655 46 35 -2 -28 -34 -560 -285 -330 -156 -601 -285 -603 -287
-5 -4 129 -314 138 -320 4 -2 285 97 625 220 340 124 620 223 622 221 2 -2
-222 -196 -497 -431 -318 -271 -499 -432 -496 -441 3 -7 47 -69 98 -138 65
-88 98 -125 110 -122 9 2 256 168 550 368 586 400 568 388 552 367 -35 -45
-756 -1072 -760 -1083 -3 -7 54 -59 132 -121 135 -107 136 -108 153 -87 40 52
846 1001 848 998 1 -1 -96 -281 -217 -622 -121 -340 -220 -623 -220 -629 0
-10 308 -141 315 -134 1 2 132 275 291 606 159 331 289 601 291 599 1 -1 -20
-300 -48 -665 -28 -364 -49 -664 -47 -665 8 -8 328 -49 333 -44 3 3 60 297
125 653 65 355 120 651 122 656 2 5 57 -288 123 -651 112 -618 121 -660 140
-660 19 0 317 41 322 45 2 1 -19 300 -47 665 -27 366 -48 666 -47 667 2 1 130
-269 286 -600 156 -331 288 -606 292 -611 12 -14 315 127 312 145 -2 8 -92
259 -202 559 -109 300 -210 579 -225 620 l-26 75 27 -32 c432 -507 849 -992
853 -992 13 -1 265 212 264 223 -1 11 -473 696 -713 1036 -44 62 -44 64 -16
46 17 -11 270 -183 563 -382 l533 -363 105 141 c84 113 102 144 92 153 -7 7
-229 196 -493 420 -264 224 -489 416 -499 426 -10 9 266 -86 613 -213 348
-126 634 -228 635 -226 5 6 126 313 126 319 0 3 -270 133 -600 290 -524 247
-596 284 -563 286 21 2 317 -19 658 -46 341 -26 623 -45 626 -42 11 10 48 315
40 324 -4 4 -293 60 -642 124 -349 64 -637 119 -641 122 -4 4 281 62 634 129
354 67 646 126 650 130 12 12 -34 332 -48 332 -7 0 -295 -23 -640 -50 -345
-28 -638 -50 -651 -48 -15 2 184 102 574 287 329 157 600 286 602 287 3 3
-117 312 -125 322 -2 3 -1237 -434 -1259 -445 -24 -13 56 57 523 456 l493 422
-33 42 c-18 23 -65 83 -105 134 l-73 92 -532 -368 c-595 -410 -598 -412 -582
-391 39 53 745 1091 749 1102 4 9 -43 50 -129 116 l-135 102 -438 -514 c-241
-282 -439 -513 -440 -512 -1 1 99 281 222 622 124 340 226 625 228 633 1 9
-46 34 -138 72 -77 33 -147 61 -156 64 -12 4 -77 -123 -304 -595 -158 -330
-289 -599 -291 -597 -1 1 19 299 47 661 27 363 48 660 46 661 -4 4 -301 45
-323 45 -19 0 -27 -40 -139 -660 -66 -362 -120 -658 -122 -657 -1 2 -52 275
-113 607 -61 333 -115 629 -121 658 -10 52 -11 52 -47 51 -20 -1 -97 -11 -169
-22z"/>
</g>
</svg>
